<svg xmlns="http://www.w3.org/2000/svg" xmlns:xlink="http://www.w3.org/1999/xlink" width="271.496" height="109.008" viewBox="0 0 271.496 109.008"><defs><style>.a,.f{fill:#42a34b;}.a{font-size:32px;font-family:calibri, calibri;font-weight:600;}.b{fill:url(#a);}.c{fill:url(#b);}.d{fill:#71c064;}.d,.e,.f{fill-rule:evenodd;}.e{fill:#60b651;}</style><linearGradient id="a" x1="-8.05" y1="8.343" x2="-7.938" y2="8.343" gradientUnits="objectBoundingBox"><stop offset="0" stop-color="#9acb55"/><stop offset="1" stop-color="#0d9a49"/></linearGradient><linearGradient id="b" x1="-6.234" y1="4.538" x2="-5.98" y2="4.538" xlink:href="#a"/></defs><g transform="translate(84.254 57.844)"><text class="a" transform="translate(0 31)"><tspan x="0" y="0">AOS</tspan></text></g><g transform="translate(0 17.588)"><path d="M29.988-22.574v7.325H25.2V10.664H17.313V-15.249H13.37v-7.325h3.943V-28.49c1.127,2.255,5.633,2.819,7.888,5.916Z" transform="translate(-13.37 28.49)"/></g><g transform="translate(21.397 12.5)"><path d="M39.157,15.366v-16.9c0-4.789-.844-10.139-6.76-10.139S25.636-6.042,25.636-1.535v16.9H17.75V-28.858h7.886V-15.62A12.425,12.425,0,0,1,34.088-19a12.969,12.969,0,0,1,11.549,7.042,21.353,21.353,0,0,1,1.409,8.452V15.366Z" transform="translate(-17.75 28.858)"/></g><g transform="translate(55.764 22.36)"><path d="M32.949-12.368V6.223H24.781V-27.015H32.1v3.1c1.973-2.817,3.662-4.226,7.325-4.226h.563v7.606C34.922-20.254,32.949-17.437,32.949-12.368Z" transform="translate(-24.781 28.142)"/></g><g transform="translate(75.219 12.5)"><path d="M28.757-21.533v-7.325h7.886v7.325Zm0,36.9V-17.873h7.886V15.366Z" transform="translate(-28.757 28.858)"/></g><g transform="translate(87.033 23.774)"><path d="M50.9,5.121H44.7L31.177-28.118H39.91L48.079-6.147l7.606-21.971h8.732Z" transform="translate(-31.177 28.118)"/></g><g transform="translate(123.314 22.091)"><path d="M55.9-28.4a18.155,18.155,0,0,0-5.633.846A18.072,18.072,0,0,0,38.439-10.369,17.829,17.829,0,0,0,52.8,7.1,18.466,18.466,0,0,0,62.945-3.327c0-.283-.283-.283-.283,0A8.03,8.03,0,0,1,55.9.053a9.052,9.052,0,0,1-8.732-7.042H73.085a18.929,18.929,0,0,0,.563-3.943C73.085-20.228,65.479-28.4,55.9-28.4Zm-9.3,15.211a9.925,9.925,0,0,1,9.576-7.886,9.743,9.743,0,0,1,5.072,1.407,10.771,10.771,0,0,1,4.224,6.2H46.608Z" transform="translate(-38.439 28.397)"/></g><g transform="translate(137.468 46.309)"><path class="b" d="M60.084-26.715c-1.973,6.76-9.015,11.549-16.055,11.549a7.777,7.777,0,0,1-2.536-.283c.563-.281,1.127-.281,1.69-.563A15.386,15.386,0,0,0,51.069-23.9a4.958,4.958,0,0,1,4.789-2.817Z" transform="translate(-41.493 26.715)"/></g><g transform="translate(3.649 5.909)"><path class="c" d="M22.288-12.409v8.45c-2.253-3.1-7.042-3.662-7.886-5.916-.283-.281-.283-.563-.283-1.127V-19.17C16.936-20.014,22.288-16.634,22.288-12.409Z" transform="translate(-14.119 19.3)"/></g><g transform="translate(162.741 18) rotate(-11.226)"><path class="d" d="M50.1,66.946l2.229,3.95a37.191,37.191,0,0,1-15.416,3.345,36.751,36.751,0,0,1-14.364-2.9l2.261-3.948a32.717,32.717,0,0,0,25.29-.448ZM0,40.958H4.555A32.552,32.552,0,0,0,17.837,63.54l-2.2,3.979A37.1,37.1,0,0,1,0,40.958Zm73.861,0A37.172,37.172,0,0,1,59.147,66.851l-2.23-3.979a32.611,32.611,0,0,0,12.39-21.914ZM58.732,7.1a37.019,37.019,0,0,1,15.1,25.893H69.275A32.544,32.544,0,0,0,56.5,11.051ZM15.957,6.5l2.23,3.948a32.512,32.512,0,0,0-13.6,22.55H.032A37.043,37.043,0,0,1,15.957,6.5Zm6.975-3.759A37.181,37.181,0,0,1,36.915,0,36.474,36.474,0,0,1,51.853,3.152L49.624,7.1A31.812,31.812,0,0,0,36.915,4.523,32.829,32.829,0,0,0,25.163,6.685Z" transform="translate(9.3 9.271)"/><path class="e" d="M57.49,76.026l2.516,4.493A42.254,42.254,0,0,1,42.074,84.5a41.647,41.647,0,0,1-16.88-3.538l2.516-4.491a36.751,36.751,0,0,0,14.364,2.9A37.191,37.191,0,0,0,57.49,76.026ZM0,46.088H5.16A37.1,37.1,0,0,0,20.8,72.649L18.251,77.14A42.349,42.349,0,0,1,0,46.088Zm84.149,0a42.166,42.166,0,0,1-17.3,30.384l-2.547-4.491A37.172,37.172,0,0,0,79.021,46.088ZM66.44,7.74A42.276,42.276,0,0,1,84.149,38.125h-5.16a37.02,37.02,0,0,0-15.1-25.893ZM18.569,7.167l2.547,4.459a37.043,37.043,0,0,0-15.925,26.5H.032A42.149,42.149,0,0,1,18.569,7.167Zm6.975-3.791A42.106,42.106,0,0,1,42.074,0,41.622,41.622,0,0,1,59.561,3.791L57.013,8.282A36.474,36.474,0,0,0,42.074,5.13,37.181,37.181,0,0,0,28.092,7.868Z" transform="translate(4.14 4.141)"/><path class="f" d="M63.414,83.353l2.771,4.907a46.307,46.307,0,0,1-38.889.478L30.067,83.8a40.3,40.3,0,0,0,16.148,3.343A40.837,40.837,0,0,0,63.414,83.353ZM0,50.229H5.637A40.865,40.865,0,0,0,23.123,79.976l-2.771,4.9A46.323,46.323,0,0,1,0,50.229Zm92.462,0a46.4,46.4,0,0,1-19.43,34.016l-2.8-4.934A40.693,40.693,0,0,0,86.792,50.229ZM72.619,8.248A46.386,46.386,0,0,1,92.43,42.265H86.761A40.65,40.65,0,0,0,69.847,13.189ZM20.671,7.679l2.771,4.9A40.834,40.834,0,0,0,5.669,42.265H.031A46.391,46.391,0,0,1,20.671,7.679Zm6.975-3.793A46.383,46.383,0,0,1,65.74,4.3L62.968,9.237a40.788,40.788,0,0,0-32.552-.412Z" transform="translate(0 0)"/></g></svg>